Patient4_TMGait_0pt7_01_left_23_EMG.mot
version=1
nRows=16
nColumns=33
inDegrees=no
endheader
time	1LAddLong	2LGlutMax	3LGlutMed	4LIliopsoas	5LSemiMemb	6LBicFemLong	7LRecFem	8LVastMed	9LVastLat	10LGasMed	11LTibAnt	12lTibPost	13LPeroneusLong	14LSol	15LExtDigLong	16LFlexDigLong	17RAddLong	18RGlutMax	19RGlutMed	20RIliopsoas	21RSemiMemb	22RBicFemLong	23RRecFem	24RVastMed	25RVastLat	26RGasMed	27RTibAnt	28RTibPost	29RPeroneusLong	30RSol	31RExtDigLong	32RFlexDigLong
27.675	0.004272	-0.10819	0.057373	0.000305	-0.064087	-0.021057	-0.007477	0.007172	0.033264	-0.04425	-0.15671	0.00885	0.066986	0.061951	-0.020599	-0.007935	0.076599	-0.20035	0.54596	0.082397	-0.016327	-0.10437	0.3096	0.017548	-0.34897	-0.006104	0.009003	0.21927	0.21454	-0.028534	0.001678	-0.011597
27.676	0.005646	-0.12863	0.023041	0.012054	-0.067902	-0.090179	-0.016327	0.011139	0.024109	-0.029755	-0.091858	0.002594	0.076141	0.033264	-0.011902	0.002136	0.046082	-0.23086	0.4364	0.069122	-0.04715	-0.082092	0.41672	0.060425	-0.6778	0.012054	0.030975	0.064087	-0.21774	-0.29098	-0.002441	-0.013123
27.677	0.010223	-0.12589	-0.003052	0.005493	0.034943	-0.12466	0.004578	0.005951	0.028229	-0.02533	-0.073242	0.016632	0.069122	-0.019379	0.003967	-0.005951	0.014801	-0.24231	0.66361	0.049286	-0.048065	-0.054016	0.30624	0.04425	-0.50064	0.04776	0.066681	-0.055084	-0.35431	-0.60043	-0.001526	-0.010223
27.678	0.023651	-0.12619	-0.014038	0.001526	0.060577	-0.098572	-0.02655	-0.002899	0.024719	-0.021057	0.060425	0.011292	0.09079	-0.054016	0.009308	0.007477	0.013885	-0.29388	0.25681	-0.031586	-0.032196	-0.030823	0.26199	0.10178	-0.25803	0.047302	0.10574	-0.16281	-0.55512	-0.44998	-0.005035	-0.018311
27.679	0.022278	-0.1149	-0.02243	0.007477	0.024719	-0.033264	-0.016022	0.00351	0.028229	-0.014038	0.15915	0.007782	0.078735	-0.049438	0.038147	0.001373	0.021057	-0.29266	0.053253	-0.026855	-0.037689	-0.011139	0.37689	0.10681	0.05249	0.033264	0.12528	0.13382	-1.3873	0.018921	-0.001831	-0.014496
27.68	0.023346	-0.1384	-0.036926	-0.000458	0.013428	0.006256	-0.024872	0.003204	0.02121	-0.013885	0.074158	0.005035	0.038452	-0.08194	0.032043	0.00412	0.0177	-0.28305	0.013733	-0.031128	-0.033417	0.005646	0.12375	0.048065	0.46585	0.02533	0.030518	0.10941	0.099792	0.15488	-0.003052	-0.009155
27.681	0.01297	-0.15671	-0.041046	0.009918	-0.000153	0.018005	-0.025635	-0.003662	0.012512	-0.011597	-0.05249	0.009918	0.057068	-0.10254	-0.026703	-0.000458	0.004272	-0.33707	0.056458	-0.055084	-0.018768	0.052185	-0.16419	-0.08728	0.4483	0.019684	-0.041504	0.045166	1.669	0.1445	-0.003052	-0.002441
27.682	0.008698	-0.15671	-0.044098	0.004425	0.025635	-0.009308	-0.006409	0.000916	0.033264	-0.027466	-0.12161	0.010071	0.050049	-0.015106	-0.007324	-0.000916	0.00946	-0.30502	-0.11551	-0.069885	-0.019836	0.027466	-0.15243	-0.22842	0.30212	0.013428	0.15305	0.034027	0.55374	0.017548	-0.001678	0.007172
27.683	0.015106	-0.14557	-0.041046	-0.001373	0.02121	-0.000153	-0.008392	0.006714	0.024109	-0.038147	-0.092316	0.012512	0.052643	-0.001526	0.008698	-0.002289	0.0383	-0.29434	0.28458	-0.11093	-0.02182	-0.000153	-0.33798	-0.13519	0.34317	0.011749	0.28183	0.01236	0.27329	-0.08194	-0.003662	0.003357
27.684	0.01236	-0.159	-0.061798	-0.003815	-0.001068	-0.007477	-0.004425	0.00473	0.031738	-0.02655	-0.035553	0.001526	0.063324	0.030365	0.006256	0.005188	-0.002747	-0.25482	0.32928	-0.051575	0.002594	0.001831	-0.52017	-0.061493	0.34363	0.005188	0.35217	-0.008087	0.37888	-0.21423	-0.002899	0.003967
27.685	0.009918	-0.15091	-0.079041	0.001984	0.018616	-0.033112	-0.000763	0.013733	0.032196	-0.033569	-0.003052	0.009003	0.049744	-0.1207	0.014954	0.002747	0.011597	-0.25574	0.17624	-0.103	-0.001068	-0.012054	-0.36835	-0.061188	-0.39688	-0.000305	0.36652	-0.02655	-0.84518	-0.22522	-0.002594	0.001068
27.686	0.010529	-0.15945	-0.081787	0.005646	-0.010529	-0.027313	-0.009155	0.005341	0.025177	-0.028992	0.034943	0.00824	0.034943	-0.25085	0.00946	0.010071	0.014038	-0.25925	-0.18494	0.016022	0.001068	-0.01236	-0.31509	-0.072327	-0.93887	0.010529	-0.49988	-0.02182	-1.0567	-0.03006	0.009003	-0.001678
27.687	0.013885	-0.14648	-0.032349	-0.012665	-0.010071	-0.021667	-0.00061	0.004425	0.02182	-0.036774	0.056	0.007172	0.03418	-0.22095	0.002899	0.000763	-0.007019	-0.21912	-0.74081	0.033722	0.00946	-0.006714	-0.37094	0.16144	-0.39948	0.015259	-1.0075	-0.009613	0.55298	0.026245	-0.002289	-0.006714
27.688	0.00824	-0.18951	-0.059662	0	0.010223	-0.028534	-0.007782	0.005493	0.025482	-0.024261	0.002747	0.009766	0.016174	-0.16327	-0.00412	-0.001221	0.010834	-0.2771	-0.23025	-0.040894	-0.011902	-0.017548	-0.13412	0.18097	-0.14786	0.014343	-0.42923	-0.012817	0.26688	-0.041962	-0.00412	-0.003662
27.689	0.00473	-0.2063	-0.081482	0.001984	0.014191	0.022278	-0.007935	-0.010834	0.020142	-0.028076	-0.020142	0.004272	0.011139	-0.11902	0.005798	0.005646	0.03418	-0.26672	0.19882	-0.085602	-0.026855	-0.044098	0.008392	-0.020599	-0.036469	0.016022	0.11719	-0.026093	-0.10696	-0.097046	-0.003204	0.00061
27.69	0.008087	-0.18219	-0.10315	-0.023804	0.012054	0.018921	-0.008545	-0.023041	0.016937	-0.041504	-0.011444	0.005646	-0.004425	-0.15747	-0.004578	-0.002441	0.029602	-0.25833	0.67993	-0.049438	-0.015869	-0.029449	-0.059967	-0.061493	0.016937	0.010986	0.25742	-0.02182	-0.22064	-0.009613	-0.006256	-0.009766
